<svg xmlns="http://www.w3.org/2000/svg" viewBox="0 0 32 32"><path d="M16 3c-3.047 0-5.616 1.918-6.31 4.576a62.77 62.77 0 0 0-2.895.352c-1.985.292-3.565 1.703-4.02 3.6a27.477 27.477 0 0 0 0 12.945c.455 1.896 2.034 3.31 4.02 3.601a63.27 63.27 0 0 0 18.41 0c1.985-.292 3.565-1.705 4.02-3.601a27.503 27.503 0 0 0 0-12.946c-.455-1.896-2.034-3.31-4.02-3.601a62.76 62.76 0 0 0-2.894-.35C21.616 4.92 19.046 3 16 3zm0 2c1.838 0 3.41.975 4.107 2.395a63.254 63.254 0 0 0-8.214 0C12.59 5.975 14.16 5 16 5zm0 4.254c2.979 0 5.957.216 8.914.65.956.141 1.772.741 2.172 1.555.172.35.157.773-.02 1.121-1.35 2.665-3.848 4.76-6.945 5.766.167 1.12-.06 2.25-.69 3.343a1.001 1.001 0 0 1-.494.43 7.862 7.862 0 0 1-2.937.584 7.882 7.882 0 0 1-2.938-.584.997.997 0 0 1-.494-.43c-.628-1.09-.856-2.218-.691-3.337-3.09-1.005-5.59-3.106-6.943-5.776a1.267 1.267 0 0 1-.018-1.123c.401-.812 1.216-1.409 2.17-1.549A61.242 61.242 0 0 1 16 9.254zm0 7.865a2.567 1.934 0 1 0 0 3.867 2.567 1.934 0 1 0 0-3.867z"/></svg>